# xmcd
#
# Track frame offsets:
#	150
#	11773
#	22348
#	38122
#	51096
#	72552
#	85459
#	103471
#	121005
#	140234
#	157668
#	183206
#	194841
#	206493
#
# Disc length: 2908 seconds
#
# Revision: 1
# Processed by: cddbd v1.5.1PL2 Copyright (c) Steve Scherf et al.
# Submitted via: audiograbber 1.83.01
#
DISCID=d00b5a0e
DTITLE=Pianokillers - Boogie Men
DYEAR=1998
DGENRE=Boogie
TTITLE0=Bubble Gum
TTITLE1=Atomic Boogie
TTITLE2=Plumber Blues
TTITLE3=Schubert's mad Trouts
TTITLE4=Gettin' older
TTITLE5=Simple Boogie Man
TTITLE6=Swanee River
TTITLE7=Nowhere to go
TTITLE8=Crazy Amadeus
TTITLE9=Buona Sera Signora
TTITLE10=May Rain
TTITLE11=Canary Canon
TTITLE12=Killer Boogie
TTITLE13=Someone like you
EXTD=
EXTT0=
EXTT1=
EXTT2=
EXTT3=
EXTT4=
EXTT5=
EXTT6=
EXTT7=
EXTT8=
EXTT9=
EXTT10=
EXTT11=
EXTT12=
EXTT13=
PLAYORDER=
